<svg xmlns="http://www.w3.org/2000/svg" viewBox="0 0 64 64" fill="none">
  <rect width="64" height="64" rx="18" fill="#111111"/>
  <path d="M26 11h12v6H26z" fill="#F6EFE2"/>
  <path d="M20 19h24v8H20z" fill="#F6EFE2"/>
  <path d="M24 28h16c3.866 0 7 3.134 7 7v2c0 8.284-6.716 15-15 15S17 45.284 17 37v-2c0-3.866 3.134-7 7-7Z" fill="#C4873A"/>
  <rect x="19" y="31" width="26" height="15" rx="7.5" fill="#F6EFE2"/>
  <path d="M37.5 35.2c-1.3-1.1-3.1-1.7-5-1.7-4 0-6.8 2.7-6.8 5.8 0 3.1 2.8 5.8 6.8 5.8 1.9 0 3.7-.6 5-1.7v-3.1c-1 1.1-2.6 1.8-4.4 1.8-2.3 0-4-1.3-4-2.8s1.7-2.8 4-2.8c1.8 0 3.4.7 4.4 1.8v-3.1Z" fill="#111111"/>
</svg>
